<svg width="1440" height="164" viewBox="0 0 1440 164" fill="none" xmlns="http://www.w3.org/2000/svg">
<path opacity="0.9" d="M0 109.85L9.97509 106.841C20.0377 103.833 40.2504 97.8162 60.3755 103.833C79.9757 109.85 99.7509 127.9 119.876 115.866C140.001 103.833 160.126 61.7159 180.252 40.6574C200.027 19.5989 219.627 19.5989 239.752 19.5989C259.965 19.5989 280.002 19.5989 300.128 34.6407C319.99 49.6825 340.378 79.7661 359.628 100.825C380.016 121.883 399.878 133.916 420.004 139.933C440.041 145.95 460.254 145.95 480.379 124.891C499.979 103.833 519.755 61.7159 539.88 55.6992C560.005 49.6825 580.13 79.7661 600.255 97.8162C620.03 115.866 639.631 121.883 659.756 127.9C679.968 133.916 700.006 139.933 720.131 136.925C739.994 133.916 760.382 121.883 779.632 100.825C800.019 79.7661 819.882 49.6825 840.007 28.624C860.045 7.56552 880.258 -4.4679 900.383 1.54881C919.983 7.56552 939.758 31.6324 959.883 40.6574C980.009 49.6825 1000.13 43.6658 1020.26 52.6909C1040.03 61.7159 1059.63 85.7828 1079.76 88.7911C1099.97 91.7995 1120.01 73.7493 1140.13 79.7661C1160 85.7828 1180.39 115.866 1199.64 121.883C1220.02 127.9 1239.89 109.85 1260.01 82.7744C1280.05 55.6992 1300.26 19.5989 1320.39 13.5822C1339.99 7.56552 1359.76 31.6324 1379.89 37.6491C1400.01 43.6658 1420.14 31.6324 1429.76 25.6157L1440 19.5989V164H1430.03C1420.05 164 1400.01 164 1379.89 164C1360.02 164 1339.64 164 1320.39 164C1300 164 1280.14 164 1260.01 164C1239.97 164 1219.76 164 1199.64 164C1180.04 164 1160.26 164 1140.13 164C1120.01 164 1099.88 164 1079.76 164C1059.98 164 1040.38 164 1020.26 164C1000.05 164 980.009 164 959.883 164C940.021 164 919.633 164 900.383 164C879.995 164 860.133 164 840.007 164C819.97 164 799.757 164 779.632 164C760.032 164 740.256 164 720.131 164C700.006 164 679.881 164 659.756 164C639.981 164 620.38 164 600.255 164C580.043 164 560.005 164 539.88 164C520.017 164 499.629 164 480.379 164C459.992 164 440.129 164 420.004 164C399.966 164 379.753 164 359.628 164C340.028 164 320.253 164 300.128 164C280.002 164 259.877 164 239.752 164C219.977 164 200.377 164 180.252 164C160.039 164 140.001 164 119.876 164C100.013 164 79.6257 164 60.3755 164C39.9879 164 20.1252 164 9.62508 164H0V109.85Z" fill="url(#paint0_linear)"/>
<defs>
<linearGradient id="paint0_linear" x1="0" y1="164" x2="0" y2="0" gradientUnits="userSpaceOnUse">
<stop stop-color="#FF0000"/>
<stop offset="0.0001" stop-color="#C45AD5"/>
</linearGradient>
</defs>
</svg>
