<svg width="1440" height="151" viewBox="0 0 1440 151" fill="none" xmlns="http://www.w3.org/2000/svg">
<path d="M0 24.7659L9.97509 30.7771C20.0377 36.7882 40.2504 48.8105 60.3755 54.8217C79.9757 60.8328 99.7509 60.8328 119.876 72.8551C140.001 84.8774 160.126 108.922 180.252 114.933C200.027 120.944 219.627 108.922 239.752 105.916C259.965 102.911 280.002 108.922 300.128 114.933C319.99 120.944 340.378 126.955 359.628 105.916C380.016 84.8774 399.878 36.7882 420.004 18.7548C440.041 0.721337 460.254 12.7436 480.379 33.7826C499.979 54.8217 519.755 84.8774 539.88 96.8997C560.005 108.922 580.13 102.911 600.255 102.911C620.03 102.911 639.631 108.922 659.756 111.928C679.968 114.933 700.006 114.933 720.131 117.939C739.994 120.944 760.382 126.955 779.632 123.95C800.019 120.944 819.882 108.922 840.007 102.911C860.045 96.8997 880.258 96.8997 900.383 87.883C919.983 78.8662 939.758 60.8328 959.883 66.8439C980.009 72.8551 1000.13 102.911 1020.26 117.939C1040.03 132.967 1059.63 132.967 1079.76 120.944C1099.97 108.922 1120.01 84.8774 1140.13 69.8495C1160 54.8217 1180.39 48.8105 1199.64 51.8161C1220.02 54.8217 1239.89 66.8439 1260.01 57.8272C1280.05 48.8105 1300.26 18.7548 1320.39 6.73248C1339.99 -5.28981 1359.76 0.721337 1379.89 9.73806C1400.01 18.7548 1420.14 30.7771 1429.76 36.7882L1440 42.7994V151H1430.03C1420.05 151 1400.01 151 1379.89 151C1360.02 151 1339.64 151 1320.39 151C1300 151 1280.14 151 1260.01 151C1239.97 151 1219.76 151 1199.64 151C1180.04 151 1160.26 151 1140.13 151C1120.01 151 1099.88 151 1079.76 151C1059.98 151 1040.38 151 1020.26 151C1000.05 151 980.009 151 959.883 151C940.021 151 919.633 151 900.383 151C879.995 151 860.133 151 840.007 151C819.97 151 799.757 151 779.632 151C760.032 151 740.256 151 720.131 151C700.006 151 679.881 151 659.756 151C639.981 151 620.38 151 600.255 151C580.043 151 560.005 151 539.88 151C520.017 151 499.629 151 480.379 151C459.992 151 440.129 151 420.004 151C399.966 151 379.753 151 359.628 151C340.028 151 320.253 151 300.128 151C280.002 151 259.877 151 239.752 151C219.977 151 200.377 151 180.252 151C160.039 151 140.001 151 119.876 151C100.013 151 79.6257 151 60.3755 151C39.9879 151 20.1252 151 9.62508 151H0V24.7659Z" fill="url(#paint0_linear)"/>
<defs>
<linearGradient id="paint0_linear" x1="0" y1="151" x2="0" y2="0" gradientUnits="userSpaceOnUse">
<stop offset="0.9999" stop-color="#F2A0FF"/>
<stop offset="1"/>
</linearGradient>
</defs>
</svg>
